<svg width="659" height="479" viewBox="0 0 659 479" fill="none" xmlns="http://www.w3.org/2000/svg">
<path d="M431.868 193.409C431.868 193.343 431.868 193.276 431.802 193.276C431.802 193.144 431.736 193.077 431.736 192.944C431.736 192.878 431.669 192.745 431.669 192.679C431.669 192.612 431.603 192.546 431.603 192.48C431.471 192.147 431.339 191.882 431.141 191.616L388.171 128.192C387.245 126.797 385.725 126 384.072 126H274.928C273.275 126 271.755 126.797 270.829 128.192L227.859 191.616C227.661 191.882 227.529 192.214 227.397 192.48C227.397 192.546 227.331 192.612 227.331 192.679C227.264 192.745 227.264 192.878 227.264 192.944C227.264 193.077 227.198 193.144 227.198 193.276C227.198 193.343 227.198 193.409 227.132 193.409C227.066 193.741 227 194.073 227 194.406V348.019C227 350.742 229.248 353 231.958 353H427.042C429.752 353 432 350.742 432 348.019V194.406C431.934 194.073 431.934 193.741 431.868 193.409ZM417.589 189.425H353.53L347.514 135.962H381.361L417.589 189.425ZM314.725 199.386H344.143V235.914L332.31 227.546C331.45 226.948 330.459 226.616 329.467 226.616C328.475 226.616 327.484 226.948 326.624 227.546L314.791 235.914V199.386H314.725ZM337.532 135.962L343.548 189.425H315.32L321.336 135.962H337.532ZM277.572 135.962H311.42L305.404 189.425H241.345L277.572 135.962ZM422.018 343.038H236.916V199.386H304.875V245.477C304.875 247.337 305.933 249.063 307.519 249.927C309.172 250.79 311.155 250.657 312.676 249.595L329.467 237.707L346.258 249.595C347.118 250.193 348.109 250.525 349.101 250.525C349.894 250.525 350.688 250.325 351.415 249.993C353.067 249.13 354.059 247.403 354.059 245.544V199.453H422.018V343.038Z" fill="#9E9E9E"/>
<path d="M293.108 288.911H257.938C255.228 288.911 252.98 291.169 252.98 293.892C252.98 296.615 255.228 298.873 257.938 298.873H293.108C295.818 298.873 298.066 296.615 298.066 293.892C298.066 291.169 295.818 288.911 293.108 288.911Z" fill="#9E9E9E"/>
<path d="M275.523 309.831H257.938C255.228 309.831 252.98 312.09 252.98 314.812C252.98 317.535 255.228 319.793 257.938 319.793H275.523C278.233 319.793 280.481 317.535 280.481 314.812C280.481 312.09 278.233 309.831 275.523 309.831Z" fill="#9E9E9E"/>
</svg>
